<?xml version="1.0" standalone="no"?>
<!DOCTYPE svg PUBLIC "-//W3C//DTD SVG 1.1//EN" "http://www.w3.org/Graphics/SVG/1.1/DTD/svg11.dtd">
<svg xmlns="http://www.w3.org/2000/svg">
<metadata>Copyright (C) 2015 by original authors @ fontello.com</metadata>
<defs>
<font id="hga" horiz-adv-x="1000" >
<font-face font-family="hga" font-weight="400" font-stretch="normal" units-per-em="1000" ascent="850" descent="-150" />
<missing-glyph horiz-adv-x="1000" />
<glyph glyph-name="drawing" unicode="&#xe800;" d="m0 74c22 76 45 152 65 229 39 141 75 284 113 425 18 68 75 115 148 121 66 6 133-32 160-95 9-23 21-28 44-28 296 1 591 0 887 1 23 0 30-6 35-30 52-278 106-557 159-835 0-3 0-5 0-11-11 0-22 0-32 0-444 0-888 0-1332 0-34 0-69-4-102 3-68 15-114 59-136 126-3 8-6 15-9 23 0 24 0 47 0 71z m1379 572c-12 0-21 0-30 0-163 0-327 0-490 0-113 0-226-1-338 0-14 0-23-1-26-19-33-173-66-347-99-520-11-57-22-115-33-174 385 0 767 0 1152 0-46 238-91 474-136 713z m-1056-475c2 6 4 8 5 11 28 150 57 300 85 449 5 28 8 58 3 84-7 35-46 57-81 56-39-1-71-27-82-67-29-111-57-221-86-331-14-51-28-103-42-157 76 22 141 6 198-45z m-242-132c-1-61 47-110 107-111 57-1 109 52 109 110 1 57-49 107-108 107-59 0-108-48-108-106z m1303-13c-31 0-60 0-88 0-86 0-172 1-258 0-21-1-27 6-27 27-2 82-6 163-10 246 7 1 12 2 18 2 102 0 204 0 305 0 14 1 22-1 25-17 11-81 23-161 35-242 0-4 0-8 0-16z m-340 239c2-60 6-117 7-174 0-19 8-23 25-23 77 1 153 0 230 0 9 0 18 0 30 0-8 68-15 133-23 197-91 0-179 0-269 0z m-441 298c107 0 212 0 321 0 0-90 0-179 0-270-117 0-236 0-359 0 13 89 25 179 38 270z m281-230c0 67 0 132 0 199-82 0-164 0-246 0-9-67-17-132-26-199 91 0 181 0 272 0z" horiz-adv-x="1611.3" />
<glyph glyph-name="constructor-1" unicode="&#xe801;" d="m651 850c3-8 7-16 7-24 1-45 0-89 1-134 0-6 6-11 9-17 4 5 11 11 11 17 1 42 1 85 1 130 63-28 103-73 123-135 3-11 4-22 7-32 2-11-3-25 14-30 3-1 4-13 2-19 0-3-7-6-12-8-3-1-7 0-10 0-128 0-256 0-383 0-20 0-32 11-23 20 28 29 19 69 36 100 26 46 59 83 112 103 0-31 0-60 0-88 0-13-1-25 1-37 1-8 6-14 10-21 4 6 11 13 11 20 1 41 0 81 1 121 0 12 2 23 4 34 26 0 52 0 78 0z m-21-1000c-82 2-150 4-215 23-2 0-3 0-4 1-46 14-50 19-43 66 8 59 20 118 27 178 4 34 7 67 23 98 19 37 47 66 83 85 8 4 22 5 30 2 56-23 112-24 167 0 12 5 21 5 32-2 61-36 95-89 103-160 8-74 20-148 33-221 3-19-5-30-20-35-36-11-73-22-110-27-40-6-80-6-106-8z m-417 46c-55 7-109 15-164 22-2 0-4 1-6 1-42 12-47 18-41 61 9 65 18 130 29 194 9 52 41 89 86 114 7 4 17 4 24 1 50-20 98-20 147 1 6 3 15 2 21-1 12-6 23-14 33-23 25-20 37-40 28-78-16-65-21-133-31-200-3-22-7-45-10-67-2-10-6-15-17-15-33-2-66-4-98-6-1-2-1-3-1-4z m805 4c-32 2-64 5-96 5-14 1-18 7-19 19-9 56-17 113-26 170-7 40-14 80-21 120 0 6 1 15 4 19 21 19 42 38 64 56 4 4 14 4 20 1 49-21 98-21 147-1 7 3 18 3 24-1 55-32 84-79 91-142 6-59 17-118 26-176 4-28 2-34-24-44-57-21-117-24-178-25-4 0-8 0-12 0 0 0 0-1 0-1z m-578 654c116 0 229 0 347 0-2-21-1-41-5-61-9-54-35-100-79-134-53-43-121-45-176-4-65 49-91 116-87 199z m-286 185c0-38 0-71 1-105 0-6 6-12 9-18 3 6 8 12 8 18 1 36 1 71 1 107-1 16 5 23 22 23 64-2 55 9 56-56 0-24-1-49 0-74 0-6 6-12 10-18 3 6 8 12 8 18 1 33 1 65 1 98 0 1 0 1 3 7 18-12 36-22 51-36 32-28 50-65 57-108 1-9 9-16 12-25 2-6 3-12 2-18-1-3-7-5-11-6-3-1-7 0-10 0-108 0-216 0-324 0-8 0-15 4-22 6 3 8 7 15 9 22 3 8 5 15 6 23 12 65 47 112 111 142z m804-3c0-35 0-68 1-101 0-7 6-13 9-19 3 6 9 13 9 19 1 36 1 71 0 107 0 16 5 21 22 22 55 0 55 1 55-55 0-25-1-51 0-76 1-6 7-12 10-17 3 5 9 11 9 17 2 17 1 34 1 51 0 16 0 33 0 55 18-11 33-18 46-29 38-31 59-70 65-119 1-6 5-12 7-18 3-7 5-14 8-20-7-3-13-7-20-7-59 0-117 0-176 0-51 0-103 0-154 0-6 0-17 4-17 7 0 6 5 13 7 20 3 9 6 17 8 26 11 60 42 105 96 133 3 1 7 2 14 4z m-596-232c12-91-48-180-132-194-40-6-75 10-104 37-43 42-63 94-58 157 98 0 196 0 294 0z m508 0c98 0 195 0 291 0 21-83-53-189-137-194-23-2-48 6-68 16-60 32-97 112-86 178z" horiz-adv-x="1233.4" />
<glyph glyph-name="build" unicode="&#xe802;" d="m890 607c37-63 73-124 108-185 6-10 12-20 18-30 5-11 1-18-11-19-3 0-7 0-11 0-171 0-343 0-515 0-6 0-12 0-18 1 0 1-1 2-1 3 4 4 7 7 12 10 92 55 183 111 276 166 9 6 13 12 14 22 3 42 20 75 59 95 94 49 179 112 267 170 19 13 33 14 52 0 21-15 34-35 34-62 1-20-7-34-25-42-59-27-117-55-174-83-28-14-56-30-85-46z m32 92c-4-2-7-3-10-5-28-16-56-32-84-48-20-10-32-27-38-49-9-34-7-69-7-105 12 3 23 7 33 9 7 2 10 5 9 12 0 20 0 40 1 60 0 17 8 30 23 38 10 5 18 10 27 15 22 13 44 25 67 38-8 12-14 23-21 35z m-474-394c59 0 119 0 178 0 23 0 33-11 33-34 0-46 0-93 0-139 0-20-11-32-32-32-119 0-239 0-358 0-22 0-33 11-33 32 0 47 0 94 0 141 0 22 11 32 34 32 59 0 119 0 178 0z m235-455c-59 0-119 0-178 0-22 0-32 10-32 32 0 47 0 94 0 140 0 22 10 32 32 32 119 0 238 0 357 0 22 0 33-10 33-32 0-47 0-93 0-140 0-22-11-32-33-32-60 0-119 0-179 0z m-472 0c-59 0-119 0-179 0-21 0-32 10-32 32 0 47 0 94 0 140 0 22 11 32 33 32 119 0 238 0 357 0 22 0 33-10 33-32 0-47 0-93 0-140 0-21-11-32-32-32-60 0-120 0-180 0z m1 705c60 0 119 0 179 0 21 0 32-11 32-32 0-46 0-92 0-138 0-24-11-35-35-35-64 0-127 0-191 0-53 0-105 0-158 0-30 0-39 10-39 38 0 45 0 89 0 134 0 23 10 33 34 33 59 0 119 0 178 0z m485-352c0 25 0 49 0 74 0 18 10 28 28 28 47 0 94 0 141 0 18 0 29-11 29-28 0-49 0-98 0-146 0-18-10-29-27-29-48-1-97-1-145 0-18 0-26 11-26 29 0 24 0 48 0 72z m-498 0c0-24 0-47 0-71 0-18-9-30-27-30-48-1-96-1-144 0-18 0-28 11-28 29 0 48 0 96 0 144 0 20 11 30 30 30 46 0 92 0 139 0 20 0 30-11 30-31 0-24 0-48 0-71z" horiz-adv-x="1174.8" />
<glyph glyph-name="hook" unicode="&#xe803;" d="m471 850c0-19 0-39 0-60 7 0 11 0 15 0 9 1 13-3 13-12 0-14 0-27 0-42 11 0 22 0 33 0 14 0 29 0 43 0 7 0 10-2 12-8 16-45 32-89 48-133 1-5 1-11 0-15-16-45-32-89-48-134-2-6-6-8-12-8-79 1-159 1-238 0-8 0-11 3-13 10-16 44-32 87-48 131-1 5-1 12 1 17 15 44 31 87 47 130 2 7 6 10 13 10 25 0 49 0 75 0 0 12 0 23 0 35 0 19 1 19 19 19 2 0 4 1 9 1 0 20 0 39 0 59 10 0 21 0 31 0z m-471-1000c0 18 0 36 0 54 24 0 48 0 72 0 0 32 0 64 0 96-23 0-47 0-71 0 0 19 0 36 0 55 24 0 47 0 71 1 8 0 16 2 23 6 94 52 187 104 280 156 3 2 6 3 9 5-40 58-11 123 45 143-1 3-2 7-2 9-9 2-19 3-25 8-6 5-8 14-13 23 45 0 88 0 130 0-1-19-10-27-33-29-2-11-4-21-6-32-3-14-10-20-25-21-20-1-35-10-42-29-7-18-3-35 12-49 7 3 14 7 20 11 6 4 11 4 16 0 3-2 6-3 9-5 14-8 17-7 23 8 4 9 4 20 5 31 1 17 15 29 31 25 4-1 7-4 12-6-11-7-11-15-9-25 5-21 2-42-11-61 16-10 33-19 49-28 80-45 160-90 241-134 7-4 16-6 24-6 25-1 50-1 75-1 0-18 0-36 0-55-24 0-47 0-71 0 0-32 0-63 0-95 24 0 47 0 71 0 0-19 0-37 0-55-303 0-606 0-910 0z m771 206c-3 2-5 4-7 5-85 47-169 94-254 142-5 3-9 2-14-1-28-16-57-16-85 0-7 3-11 3-17 0-84-47-167-94-251-141-2-1-4-3-7-5 212 0 423 0 635 0z m-98-61c-12 0-25 0-38 0-15-1-25-11-26-27 0-10 0-20 0-30 1-16 9-27 25-27 26-1 52-1 78 0 15 0 24 11 24 25 1 11 1 22 0 32 0 16-11 26-27 27-12 0-24 0-36 0z m-222-84c0 0 0-1 0-1 14 0 27 0 40 1 15 1 24 10 25 25 0 11 0 22 0 33-1 15-11 25-27 26-24 0-49 0-74 0-15-1-26-11-26-26 0-11 0-22 0-33 0-14 9-24 23-25 13-1 26 0 39 0z m-219 84c-12 0-24 0-37 0-15-1-26-10-26-26-1-11-1-22 0-33 0-14 10-25 24-25 26-1 52-1 78 0 16 0 24 11 24 26 1 10 1 20 0 30 0 17-10 27-26 28-12 0-25 0-37 0z" horiz-adv-x="910.2" />
<glyph glyph-name="wheelbarrow" unicode="&#xe804;" d="m583-150c-16 23-32 46-46 70-8 15-16 21-33 21-83-1-165-1-247 0-13 0-21-3-28-15-33-49-92-68-145-50-53 19-87 69-84 124 4 60 42 104 101 117 60 13 123-24 142-84 2-6 4-12 7-19 88 0 176-1 264 0 36 1 68-1 80-50 21 39 38 72 55 105 42 79 84 159 126 239 12 23 29 31 55 30 51-3 103-2 154-1 7 0 15 7 21 12 24 20 51 26 78 12 27-13 40-35 38-66-2-28-17-48-43-58-27-10-51-4-73 15-7 6-18 11-27 11-41 1-83 0-125 1-14 0-21-5-27-17-63-121-126-241-190-361-7-13-18-24-27-36-9 0-17 0-26 0z m-491 107c2 33 10 47 30 46 10 0 22-7 29-15 6-7 5-20 7-31 24 22 25 53 3 75-21 21-56 19-76-3-20-23-17-53 7-72z m315 109c-42 0-84-1-126 0-8 1-18 5-24 11-31 36-69 57-116 64-7 1-16 7-19 13-31 66-60 132-90 198-14 31-3 49 31 53 181 18 363 35 544 54 48 4 95 10 142 14 10 0 23-2 28-8 4-6 3-20-2-28-56-111-114-221-172-331-14-27-38-40-69-40-42 0-85 0-127 0z m-301 383c-17 2-34 5-43 23-10 21-1 38 13 52 47 53 94 104 142 156 42 46 84 92 126 138 37 41 79 43 117 3 73-77 146-155 218-232 15-16 23-33 17-54-8-23-28-30-49-32-76-8-151-15-227-23-101-10-201-20-302-30-3 0-7 0-12-1z m533 105c-2 4-3 6-4 8-70 74-139 148-209 222-19 20-26 20-45-1-71-78-142-156-213-234-13-14-26-29-42-46 174 17 343 34 513 51z" horiz-adv-x="1121.1" />
<glyph glyph-name="carman" unicode="&#xe805;" d="m1594-40c-11-18-27-25-48-24-23 0-45 0-61 0-8 40-9 79-23 113-29 73-109 113-183 101-81-14-139-78-147-159-1-7-6-13-14-19-7 60-28 109-75 144-35 27-76 39-120 34-53-5-95-29-126-72-31-42-36-90-29-142-49 0-94 0-140 0-7 0-13 1-22 1 10 66-5 124-54 170-33 31-74 48-120 48-57-1-103-24-139-68-35-43-43-94-35-151-29 0-54 0-80 0-48 0-95 0-143 0-35 0-35 0-35 36 0 4 0 8 0 12 0 40 0 40 41 44 0 39 2 79 0 118-2 28 6 47 27 65 78 69 144 148 197 238 31 53 75 77 138 74 77-4 154-1 233-1 0-132 0-263 0-395 37 0 71 0 109 0 0 28 0 57 0 85 0 20 0 40 2 60 2 26 19 40 45 39 25 0 43-16 45-41 1-19 0-38 0-58 56 0 109 0 164 0 14 71 28 143 42 215 9 46 17 93 26 139 4 22 15 32 38 31 31-1 63 0 95 0 33 0 38-4 45-37 21-108 41-216 61-324 2-8 4-16 6-24 61 0 121 0 184 0 0 19 1 38 0 57-1 16 5 24 21 23 9-1 17-1 25-1 14 1 21-5 20-19 0-1 0-2 0-2-5-34 0-64 30-84 0-76 0-151 0-226z m-1218 345c30 0 60 0 90 0 20 0 31 10 31 30 0 30 0 60 0 90 0 20-10 30-29 30-29 1-59 3-87 0-15-2-33-12-42-23-25-32-46-67-68-101-12-18-7-25 15-26 30 0 60 0 90 0z m1218 76c-5-4-9-11-15-13-76-28-153-55-232-84-10 51-19 98-28 146-10 49-19 98-29 147-9 45-34 67-79 69-35 1-71 1-106 0-48-2-74-27-82-75-15-81-31-161-46-242-1-4-3-8-6-16-31 19-63 36-92 56-7 4-10 19-10 28-1 91-1 182-1 273 0 19 7 30 23 38 78 46 156 92 236 136 11 7 29 8 42 4 134-47 268-96 401-144 9-4 16-12 24-17 0-102 0-204 0-306z m-531-405c0-72-55-126-126-126-71 0-125 56-125 129 1 69 56 124 126 124 72 0 125-55 125-127z m-126-52c29 0 54 23 55 51 1 28-26 55-54 55-28 0-53-25-53-53 0-29 23-52 52-53z m-380 52c0-72-55-126-126-126-71 0-126 57-125 128 0 70 56 125 126 125 71 0 126-55 125-127z m-126-52c30 0 53 22 53 51 1 30-24 56-53 55-28 0-52-25-52-53 0-30 23-52 52-53z m874-74c-71 0-127 57-127 127 1 70 57 125 126 126 72 0 127-54 127-126 0-71-56-127-126-127z m-4 74c31-1 56 22 57 51 1 28-23 53-51 55-27 2-53-22-54-50-2-31 19-54 48-56z" horiz-adv-x="1593.8" />
<glyph glyph-name="danger-barrier" unicode="&#xe806;" d="m176-150c-2 6-6 12-6 18-1 13-1 27-1 40 1 15 4 18 18 18 14 0 28 0 43 0 0 117 0 234 0 351-24 0-48 0-72 0-36 0-48 13-48 48 0 71 0 142 0 213 0 29 14 44 43 45 14 0 27 0 42 0 0 7 0 12 0 18 1 33-2 66 3 98 8 53 57 85 115 79 51-5 89-48 89-101 0-31 0-62 0-93 136 0 272 0 408 0 0 4 1 8 1 12 0 30-1 60 1 90 2 48 40 86 88 92 54 7 102-23 115-75 3-13 3-27 4-41 0-26 0-51 0-79 13 0 26 0 39 0 8 0 16 0 24-1 20-3 32-18 32-38 0-76 0-152 0-229 0-22-15-37-38-37-26-1-53-1-79-1-4 0-8 0-13 0 0-117 0-233 0-351 15 0 30 0 44 0 11 1 16-4 15-15 0-15 1-31 0-46 0-5-3-10-5-15-82 0-163 0-245 0-2 5-7 10-7 15-1 15 0 31 0 46-1 11 4 16 15 15 15 0 30 0 44 0 0 118 0 234 0 351-160 0-318 0-478 0 0-117 0-234 0-351 16 0 30 0 45 0 13 0 16-4 16-16 0-14 1-27 0-41 0-6-4-13-7-19-81 0-163 0-245 0z m688 675c-1 1-2 2-2 4-34 0-67 0-100-1-3 0-7-2-9-4-63-63-126-125-189-188-1-1-1-2-3-5 4 0 7 0 10 0 29 0 57 0 86 0 5 0 12 3 16 7 60 59 119 118 179 177 3 4 8 7 12 10z m-256 4c-36 0-68 0-101-1-4 0-9-2-12-5-61-61-122-122-184-183-2-3-4-5-7-9 33 0 64 0 95 0 8 0 14 2 20 8 60 60 120 120 180 180 2 3 4 5 9 10z m452 0c-12 0-23-1-33 0-8 0-14-2-20-8-59-60-119-120-179-179-3-3-6-6-10-11 36 0 69 0 102 0 3 0 7 3 10 6 41 41 83 82 124 123 2 3 5 6 6 10 0 19 0 38 0 59z m-737-257c-17 0-32 0-48 0 0-115 0-230 0-345 16 0 32 0 48 0 0 115 0 229 0 345z m568 0c0-116 0-230 0-345 17 0 32 0 47 0 0 116 0 230 0 345-16 0-32 0-47 0z m-727 73c63 61 124 121 186 180-1 1-2 3-3 4-33 0-66 0-99-1-4 0-8-2-10-5-23-23-46-45-68-68-3-3-5-6-5-9-1-33-1-67-1-101z m703 266c33 0 65 0 95 0 0 26 2 51 0 76-3 24-24 38-52 37-21-1-42-18-43-38-1-25 0-50 0-75z m-519-1c0 22 0 43 0 64 0 3 0 6 0 8-3 24-22 41-46 42-28 1-49-14-51-39-2-25-1-50-1-75 33 0 65 0 98 0z m-348 71c8 16 20 22 38 22 30-1 59-1 88-1 20 0 33-12 33-29 1-18-13-30-33-30-29 0-58 0-87-1-18 0-31 6-39 22 0 6 0 11 0 17z m1144-38c-16 0-32-1-48 0-18 0-32 13-31 30 0 17 13 29 32 29 32 0 64 0 96 0 18 0 31-12 31-29 0-17-12-30-30-30-1 0-2 0-3 0-16 0-31 0-47 0z m-72 97c-15 0-26 7-30 18-5 12-2 26 8 34 2 2 5 4 8 6 27 15 53 30 80 45 17 10 34 6 43-9 9-15 4-32-13-42-27-16-55-32-83-48-4-3-10-4-13-4z m-1003 110c6-2 12-4 18-7 26-15 53-30 80-46 18-10 23-27 14-43-9-15-26-19-44-9-27 16-54 32-82 48-14 8-19 20-15 35 4 12 15 21 29 22z" horiz-adv-x="1223.6" />
<glyph glyph-name="cross" unicode="&#xe807;" d="m1737-148c-6-1-12-2-17-2-161 0-322 0-483 0-5 0-11 0-17 1 0 119 0 237 0 356 94 0 187 0 282 0 0 88 0 173 0 259 1 0 2 1 3 2 15-17 30-33 44-49 61-70 123-139 184-209 1-1 2-2 4-3 0-118 0-237 0-355z m-400 63c9 29 15 59 27 85 36 77 119 92 182 34 32-29 50-67 65-106 2-6 8-12 13-13 10-2 22-1 38-1-15 33-27 63-42 92-23 43-52 80-95 105-57 33-123 27-163-17-46-50-59-113-67-179 16 0 30 0 42 0z m245-1c-14 40-31 74-60 99-37 32-83 33-111 2-26-28-34-63-38-100 8 0 14 0 20 0 5 14 9 28 16 41 17 33 52 44 86 26 23-12 36-32 45-55 5-10 10-14 21-13 6 1 12 0 21 0z m89 60c0 59 0 114 0 169-45 0-89 0-138 0 70-39 107-99 138-169z m-387 170c0-41 0-80 0-119 11 22 20 45 34 64 14 20 32 37 48 55-26 0-54 0-82 0z m145-229c27 0 53 0 80 0-7 27-29 45-49 43-17-1-29-18-31-43z m1 371c-172 0-343 0-515 0 0 188 0 375 0 564 5 0 11 0 16 0 83 0 166 0 249 0 8 0 18-3 24-9 73-63 145-127 217-191 5-5 10-13 10-19 0-113 0-226 0-339 0-1 0-3-1-6z m-396 63c2 10 3 19 5 27 7 22 13 46 23 67 39 77 126 72 177 26 33-30 52-68 67-109 2-5 7-11 11-12 11-1 23 0 38 0-12 27-20 52-32 75-26 53-60 101-116 128-50 24-107 19-143-15-54-51-65-118-76-187 17 0 31 0 46 0z m242 1c-16 43-35 84-77 109-33 20-70 17-93-8-27-29-34-65-39-102 8 0 15 0 19 0 7 16 11 31 19 44 15 28 44 38 74 27 25-8 40-28 52-50 13-26 13-26 45-20z m-45 228c66-39 103-101 135-171 0 60 0 115 0 171-46 0-91 0-135 0z m-163 0c-33 0-61 0-89 0 0-39 0-78 0-116 20 44 42 87 89 116z m55-229c27 0 54 0 82 0-12 29-33 46-52 44-16-2-27-18-30-44z m-302 500c0-188 0-375 0-563-171 0-343 0-516 0 0 5-1 11-1 16 0 108 1 216 0 323 0 12 4 20 13 27 72 63 143 126 214 189 5 5 13 9 19 9 88 0 176 0 264 0 2 0 4-1 7-1z m-440-499c11-4 17-3 18 10 1 7 2 14 4 21 9 38 21 75 53 101 42 33 106 26 149-15 31-30 49-67 64-107 2-5 8-12 12-12 20-1 41 0 62 0-12 62-65 150-113 184-71 51-166 52-215-51-20-42-30-85-34-131z m98-2c3 11 6 22 10 32 20 49 72 60 109 22 12-12 19-27 28-41 3-5 5-9 8-14 0 51-58 117-105 124-22 3-41-2-57-17-29-29-37-66-42-106 17 0 33 0 49 0z m144 231c65-40 102-101 134-170 0 59 0 114 0 170-45 0-90 0-134 0z m-164-1c-33 0-61 0-89 0 0-40 0-79 0-119 19 47 43 89 89 119z m136-229c-8 27-31 47-51 44-17-3-29-21-29-44 27 0 53 0 80 0z m-595-498c0 7 0 12 0 17 0 108 0 216 0 324 0 8 3 18 8 24 73 83 146 165 218 247 2 2 3 3 7 7 0-89 0-174 0-262 96 0 189 0 284 0 0-119 0-237 0-357-172 0-343 0-517 0z m76 64c16 0 30 0 45 0 1 7 2 15 4 22 9 26 16 52 28 77 12 26 34 45 63 51 48 11 87-5 120-39 27-28 43-62 57-99 2-5 7-11 12-12 11-2 22-1 36-1-10 26-18 49-29 71-22 47-51 89-94 119-67 45-145 35-189-27-34-47-46-103-53-162z m287 0c-16 43-34 82-72 107-35 23-73 21-98-6-26-28-34-63-39-101 8 0 14 0 20 0 5 13 8 26 14 38 19 38 60 50 93 25 16-12 29-29 38-47 7-14 15-19 29-17 4 1 8 1 15 1z m-44 229c65-39 101-100 134-169 0 59 0 114 0 169-46 0-90 0-134 0z m-172-1c-26 0-54 0-82 0 0-40 0-78 0-117 12 22 21 44 35 64 14 19 31 36 47 53z m143-228c-8 28-29 45-49 43-17-2-30-19-30-43 26 0 53 0 79 0z m319-64c0 119 0 237 0 355 171 0 342 0 515 0 0-118 0-236 0-355-172 0-343 0-515 0z m73 294c4-22 6-43 12-62 8-28 17-57 30-83 43-82 122-90 190-52 50 28 81 74 105 125 11 22 19 46 30 72-10 0-16-1-21 0-17 2-26-3-32-21-10-34-27-64-51-90-54-59-157-70-197 33-8 21-11 43-18 64-1 5-6 12-10 13-11 2-23 1-38 1z m79-2c4-35 12-69 35-96 18-23 42-29 71-24 44 8 89 66 101 120-29 5-30 4-43-20-2-5-5-10-8-14-18-28-42-45-76-40-33 5-48 31-55 60-3 15-10 18-25 14z m299-228c0 55 0 110 0 164-31-65-70-124-137-164 48 0 92 0 137 0z m-387 0c28 0 55 0 86 0-44 30-67 72-86 116 0-38 0-76 0-116z m225 228c-28 0-55 0-83 0 7-20 10-41 35-44 19-1 39 18 48 44z" horiz-adv-x="1736.3" />
<glyph glyph-name="symbol" unicode="&#xe808;" d="m142 449c0-36 0-70 0-105 175 0 349 0 525 0 0 35 0 69 0 105 20-2 37-8 48-23 28-36 55-72 82-108 9-12 12-25 12-39 0-120 0-241 0-361 0-41-26-67-67-68 0 0-1 0-2 0-223 0-446 0-670 0-33 0-58 16-66 45-3 7-4 15-4 23 0 119 0 238 0 357 0 18 6 34 18 49 25 32 49 65 73 98 12 17 30 24 51 27z m546-268c0-56 0-111 0-167 23 0 45 0 68 0 0 3 0 5 0 6 0 85 0 170 0 254 0 13-4 17-18 17-222 0-444 0-666 0-15 0-18-3-18-18 0-83 0-165 0-248 0-4 1-7 1-11 29 0 57 0 87 0 0 72 0 143 0 215 188 0 376 0 563 0 0-16 0-32 0-48-5 0-10 0-17 0z m68-217c-234 0-468 0-702 0 0-15 0-29 0-42 0-17 1-18 18-18 129 0 258 0 387 0 94 0 187 0 281 0 13 0 16 3 16 16 0 14 0 28 0 44z m-265 50c0 56 0 111 0 166-23 0-45 0-67 0 0-56 0-111 0-166 23 0 45 0 67 0z m159 0c0 56 0 111 0 166-17 0-33 0-50 0 0-55 0-110 0-166 16 0 32 0 50 0z m-422 166c-17 0-33 0-50 0 0-56 0-111 0-166 17 0 33 0 50 0 0 55 0 110 0 166z m157-166c0 56 0 111 0 166-16 0-32 0-49 0 0-55 0-111 0-166 17 0 33 0 49 0z m-87 166c-11 0-21 0-32 0 0-55 0-110 0-166 11 0 21 0 32 0 0 56 0 111 0 166z m233 0c0-56 0-111 0-166 10 0 20 0 31 0 0 56 0 111 0 166-11 0-21 0-31 0z m111 515c-15 0-28 0-43 0 0-71 0-142 0-213 21-4 27-11 27-31 0-22 0-43 0-66-37 0-72 0-109 0 0 26-1 50 0 75 1 12 9 18 24 22 0 71 0 142 0 213-23 3-24 4-30 28-12 0-25 0-38 0-3 0-6-3-8-5-10-9-19-18-29-28-7 17-7 33-4 49 9 42 46 71 88 71 40 0 80 0 122 0 0 7 0 12 0 18 0 13 7 21 20 22 30 0 61 0 91 0 13-1 20-9 21-22 0-49 0-99 0-148-1-15-9-23-24-23-26 0-53 0-80 0-21 0-28 7-28 28 0 3 0 6 0 10z m-377-310c-19 0-41 0-63 0 0 12 0 23 0 34 1 16 2 32 2 48 0 3-3 8-6 9-35 16-54 44-58 82-3 36 20 78 54 90 0-24 0-47 0-70 0-8 2-12 9-15 10-6 21-17 31-17 11 0 21 12 32 17 8 3 10 8 9 16 0 22 0 45 0 70 28-14 44-34 51-61 12-45-10-91-52-110-7-3-9-7-9-15 1-25 0-51 0-78z m192 0c-22 0-42 0-64 0 0 4 0 7 0 10 0 20-1 39 0 59 1 19-1 33-21 46-34 22-44 66-28 103 15 38 53 59 96 54 36-5 68-37 74-75 5-37-14-75-48-92-7-3-9-7-9-15 0-29 0-59 0-90z m-34 137c22-7 35 3 42 23 0 0 1 0 1 1 14 15 11 29 1 47-11 18-22 25-43 25-21 0-32-7-43-25-10-18-11-31 0-48 11-17 20-31 42-23z" horiz-adv-x="809.6" />
<glyph glyph-name="builder" unicode="&#xe809;" d="m86 850c0-4 0-7 0-11 0-233 0-466 0-699 0-8 1-14 8-19 14-10 20-25 20-43 0-23 0-46 0-70 256 0 511 0 768 0 0 21 0 42 0 63-1 23 6 40 24 54 3 2 4 8 4 12 1 55 1 109 1 163 0 179 0 357 0 536 0 4 0 9 0 14 18 0 37 0 56 0 0-4 0-9 0-13 0-132 0-265 0-397 0-100 0-201 0-301 0-5 1-11 4-13 12-9 19-22 25-36 0-80 0-159 0-239-5 0-9-1-14-1-322 0-645 0-967 0-5 0-9 0-15 0 0 6 0 10 0 14 0 68 0 136 0 204 0 23 4 43 25 57 2 1 3 4 3 7 1 2 0 5 0 7 0 234 0 467 0 700 0 4 0 7 0 11 19 0 39 0 58 0z m412-467c0 22 0 42 0 62-1 35 22 43 49 37 14-2 22-12 22-26 1-39 1-77 0-116 0-18-13-28-31-28-29-1-57 0-86 0-4 0-8 0-13 0 4-30 8-59 12-87 2-12 4-23 6-34 2-11-2-18-12-21-15-4-30-9-45-11-55-8-111-8-166 5-1 0-2 0-2 0-26 8-29 11-25 37 5 37 9 74 16 110 6 32 24 56 53 71 3 1 8 2 11 0 30-13 59-13 88 1 3 1 7 0 10 0 37 0 74 0 113 0z m321-222c0-38 0-75 0-113 0-13-2-16-15-16-62 0-125 0-187 0-12 0-15 3-15 15 0 76 0 151 0 227 0 13 2 15 15 15 62 0 125 0 188 0 12 0 14-2 14-15 0-38 0-75 0-113z m-523 327c-12 2-30 5-48 9-13 3-19 13-19 27-1 32 4 63 27 87 43 46 114 44 154-4 5-5 9-7 16-7 21 1 37-7 41-20 5-18-4-32-17-42-31-25-66-40-106-45-14-2-28-3-48-5z m159-344c0-18 2-35-1-52-3-30-24-46-51-53-48-10-96-10-143 0-34 8-51 28-54 63 0 14 2 27 3 41 82-20 162-20 246 1z m99 474c13 1 16-6 15-17 0-30 1-60 1-89 0-4 0-8 0-12-24 0-47 0-71 0-1 19 7 34 19 48 3 4 6 10 6 15 1 12 0 24 0 36 0 16 0 16 17 20 0 3 0 6 0 10 0 23 0 23 23 31 24 9 48 18 72 27 14 6 17 18 9 33 0-4 0-6 0-8-1-13-4-16-17-16-55 0-110 0-165 0-13 0-15 2-16 15-1 9-5 17-5 24 0 11 3 21 7 31 1 3 7 6 10 6 58 0 115 0 172 0 9 0 14-5 13-13-1-13 3-22 12-32 16-17 6-45-17-53-24-9-47-19-72-26-11-4-16-10-14-21 1-3 1-6 1-9z m73 137c-54 0-109 0-163 0 0-14 0-28 0-43 55 0 109 0 163 0 0 15 0 29 0 43z m-205-259c-4-41-20-73-54-93-28-16-56-13-82 5-23 17-36 40-43 68 61-12 121-7 179 20z" horiz-adv-x="996.1" />
<glyph glyph-name="hammer" unicode="&#xe80a;" d="m0 253c9 7 20 13 28 22 49 53 97 107 145 161 10 10 20 21 30 31 5-2 9-3 12-5 72-56 153-79 244-69 29 3 59 2 88-1 19-2 39-9 55-18 22-14 21-34-1-50-4-3-9-4-13-7-19-15-22-31-7-51 10-13 22-26 36-36 50-35 100-70 151-104 35-23 39-65 4-89-17-11-29-23-41-39-8-12-24-20-39-25-12-5-20-10-25-23-9-23-28-37-52-43-13-4-20-10-26-22-12-25-35-37-60-35-32 3-65 6-93 18-42 19-83 43-120 70-64 46-118 102-167 164-40 49-88 91-133 136-4 4-11 5-16 8 0 2 0 5 0 7z m1267 178c-27 17-52 33-77 48-20 13-42 11-63 1-23-12-44-26-70-40-39 37-79 75-121 115 8 12 15 22 22 32 24 37 24 71-3 105-15 18-33 34-52 46-30 19-62 34-93 51-17 9-36 15-46 36 8 21 27 26 45 25 35-2 70-5 105-13 180-42 323-141 438-284 6-6 11-13 19-21 36 20 58-5 79-29 14-16 15-30 0-45-36-36-72-71-109-104-16-15-30-14-47 0-23 20-51 38-27 77z m-248-36c-78-74-154-145-235-221-46 28-99 62-149 109 87 78 173 154 260 231 41-39 79-76 124-119z" horiz-adv-x="1460.9" />
<glyph glyph-name="bulldozer" unicode="&#xe80b;" d="m1360-133c-13-3-26-8-39-8-96-1-192-1-288-1-43 1-50 8-50 51 0 63-1 126 0 189 1 22-3 43-14 62-15 29-22 64-44 84-21 20-56 24-85 34-164 58-327 116-491 174-9 3-17 6-30 9-6-17-12-34-18-53 10-5 19-9 29-12 154-55 308-109 462-164 7-2 13-4 19-7 145-55 152-225 72-312-50-55-113-75-184-56-74 19-118 71-135 145-5 20-6 40-9 63-17 0-35 0-52 0-19-143-84-214-191-214-58 0-105 23-141 66-36 42-48 93-48 145-3 2-4 4-5 4-42-7-63 17-84 49-24 36-35 72-34 115 2 97 1 195 1 292 0 7 0 14 0 21-1 75 30 82 81 81 53-2 107-1 165-1 0 21 0 39 0 57 0 26 2 53 0 79-3 39 9 69 41 91 154 0 307 0 461 0 27-18 40-43 44-76 13-106 30-210 44-316 3-22 11-34 33-41 40-12 80-28 120-41 26-9 45-25 55-52 10-24 22-48 33-71 4-8 9-19 16-21 37-14 57-45 78-75 64-89 126-179 188-269 0-7 0-14 0-21z m-1035 744c144-51 287-102 436-155-15 108-30 209-45 310-132 0-261 0-391 0 0-52 0-102 0-155z m517-566c0 55-43 101-95 102-52 1-96-45-97-100-1-55 42-101 95-102 52 0 97 46 97 100z m-627 0c1-54 46-100 98-100 52 1 95 47 95 102-1 55-45 101-97 100-52-1-96-48-96-102z" horiz-adv-x="1360.4" />
<glyph glyph-name="rickshaw" unicode="&#xe80c;" d="m0 180c12 27 32 35 61 35 68-2 136-1 204-1 27 0 39-8 50-33 1-3 6-6 9-6 52 0 104 0 157 0 5 27 11 54 16 81 19 100 38 200 57 299 4 18 15 27 34 27 38 0 76 0 114 0 22 0 32-8 36-29 17-86 33-173 50-259 7-37 14-74 21-111 1-3 2-5 3-8 73 0 147 0 222 0 0 195 0 389 0 584 6 0 10 0 14 0 51 0 102 0 153 0 32 0 51-18 51-50 0-120 0-239 0-359 0-32-18-50-50-50-21 0-43 0-67 0 0-6 0-10 0-15 1-72 0-143 1-215 0-7 3-16 7-22 25-43 27-88 4-131-24-44-62-65-111-67-85-3-158 84-121 179 1 2 2 5 4 9-223 0-445 0-668 0-13-62-27-125-40-187-35 0-69 0-105 0-5 24-11 48-16 72-8 36-15 72-23 108-1 3-7 7-10 7-19 1-38 1-57 1 0 47 0 94 0 141z m1088-202c0 30-25 56-55 55-29 0-54-26-54-55 0-29 26-54 55-54 30 0 54 25 54 54z m-248 305c-11 56-21 109-31 163-8 41-16 82-24 122-7 37-40 63-77 63-41 0-82 0-123 0-39 0-70-24-78-63-17-88-34-176-51-264-3-16-7-33-10-50-28 10-54 19-81 28-53 19-106 38-159 58-16 5-20 12-20 28 0 99 0 198 0 296 0 16 4 23 19 28 144 52 289 103 433 155 13 5 25 4 37-3 86-50 172-99 258-149 12-7 18-16 18-29 0-100 0-200 0-300 0-11-4-21-14-27-31-18-63-37-97-56z" horiz-adv-x="1252" />
<glyph glyph-name="city" unicode="&#xe80d;" d="m0-150c0 14 0 29 0 44 262 0 523 0 785 0 0-15 0-30 0-44-262 0-523 0-785 0z m440 716c0-6 1-10 1-14 0-84 0-169 0-253 0-15 1-16 15-9 10 5 20 10 30 14 10 4 13 11 13 22 0 103 0 207 0 311 0 17 0 17 17 17 9 0 18 0 27 0 10 0 14 4 14 14-1 23 0 45 0 68 0 12 3 14 14 16 9 1 18 5 24 10 31 26 61 54 91 80 2 3 5 4 10 8 0-7 1-11 1-15 0-51 0-103 0-155 0-11 3-19 12-24 11-6 14-15 14-28 0-228 0-457 0-686 0-18 0-18-17-18-207 0-415 0-622 0-16 0-16 1-16 16 0 62 0 124 0 186 0 15-1 16-16 16-24 0-24 0-24 24 0 9 0 18 0 26-1 9 4 13 12 13 12 0 24 0 36 0 15 0 16 1 16 17 0 75 0 151 0 227 0 15 1 16 16 16 11 0 20-3 29-10 35-26 70-52 105-78 8-7 12-14 12-25-1-43 0-87 0-131 0-14 1-15 15-15 27 0 26-3 26 26-1 65 0 131-1 196 0 12 4 20 14 28 39 33 78 66 117 99 4 4 9 7 15 11z" horiz-adv-x="784.2" />
<glyph glyph-name="icon-big-cone" unicode="&#xe80e;" d="m911 136c7-30-8-47-33-61-119-68-237-136-355-206-45-26-87-25-131 1-119 69-238 138-358 206-25 14-37 31-33 58 0 4 0 7 0 10-3 23 7 38 27 49 39 22 77 45 116 67 17 10 33 20 50 29 15 7 22 18 26 34 16 76 34 153 51 229 15 70 32 141 46 211 8 36 28 60 61 72 53 20 107 20 160 0 31-12 49-35 57-69 31-146 64-291 96-438 5-20 14-33 33-43 51-28 101-59 153-87 26-14 41-32 34-62z m-647 141c-8-35-16-69-23-105-3-14 5-27 15-35 18-14 36-30 56-38 93-38 188-39 282-4 20 8 38 21 55 34 14 11 24 26 21 44-6 35-14 70-21 103-130-59-256-61-385 1z m27 122c65-52 272-52 330 1-7 34-15 70-24 107-94-37-187-37-282 0-8-36-16-72-24-108z m248 373c-57-34-110-33-165 0-11-51-22-100-33-151 78-27 153-26 231-1-11 52-22 101-33 152z" horiz-adv-x="913.1" />
<glyph glyph-name="worker" unicode="&#xe80f;" d="m339 413c-25-32-45-59-67-87 31-30 61-60 91-89 14-13 28-27 42-40 17-15 22-33 18-54-10-63-21-125-32-187-3-20-6-40-10-59-7-35-30-51-64-46-36 4-56 25-54 60 2 37 8 75 12 112 3 25 5 51 9 75 2 13-2 21-13 28-34 23-69 47-103 72-17 13-34 28-49 43-24 24-33 53-23 86 5 18 12 36 19 57-23 12-41 33-72 32-22-1-41 18-42 39-1 13 1 26 6 37 23 56 47 112 71 167 14 32 36 45 70 38 71-14 142-29 212-44 47-11 74-43 81-90 1-8 2-16 3-25 5-52 10-103 16-155 1-9 6-19 12-27 27-33 55-66 81-99 19-23 19-47 2-67-18-21-42-24-65-9-4 3-7 6-10 8-36 32-72 64-108 95-16 13-25 29-26 50 0 12-1 23-3 35-1 13-2 25-4 44z m-238 47c15-9 28-16 40-23 26 42 50 81 75 122-18 5-33 10-48 15-23-38-44-75-67-114z m571-389c-39 22-75 43-110 63 14 13 27 26 43 40 26-15 57-32 90-51 3 6 6 10 8 15 10 31 20 62 30 93 3 8 5 16 15 19 60 18 120 36 180 54 6-20 9-394 4-444-18-5-411-8-459-2 21 27 44 48 65 71 21 23 44 46 66 69 22 24 43 47 68 73z m-190 779c59 0 108-48 108-109 1-61-48-113-108-113-58 1-108 51-108 111 0 61 48 111 108 111z m-387-645c38-30 73-57 107-84 0-4 0-7-1-9-30-61-61-123-93-184-16-32-50-41-79-24-24 14-35 43-26 72 5 15 12 30 18 45 24 60 48 120 74 184z" horiz-adv-x="934.6" />
<glyph glyph-name="icon-manage" unicode="&#xe810;" d="m788 338c2-15 4-28 5-40 4-135-36-256-131-353-133-135-337-124-457 23-77 94-111 203-108 325 1 14 2 28 2 42 0 1 0 2-2 4-11 3-25 5-37 8-13 4-26 8-38 15-29 17-30 53 0 68 21 11 44 19 67 22 59 7 118 14 178 15 117 2 235 1 352 0 67-1 135-4 201-19 12-3 24-7 35-12 18-7 33-18 33-40 0-22-14-36-33-43-14-4-28-7-41-11-8-2-15-3-26-4z m-343 77c-51-2-103-3-155-8-27-3-55-10-80-20-34-14-53-41-58-77-5-42 0-82 9-123 6-29 17-58 27-86 8-22 24-38 46-47 20-9 44-10 56 16 5 13 15 24 24 35 17 20 38 30 64 29 45 0 89 0 134 0 24 1 44-8 59-27 11-12 20-25 29-38 15-22 30-26 54-15 23 10 39 29 49 52 26 61 37 125 35 191-2 47-26 80-70 95-22 7-46 13-69 15-51 4-102 6-154 8z m-67-327c-23-7-31-14-33-28-2-17 9-28 22-36 5-4 11-7 17-10 34-13 68-16 103-6 18 5 35 12 48 27 15 16 12 32-6 43-5 3-11 5-17 7-6-21-22-27-40-31-21-5-41-4-62 1-17 5-31 12-32 33z m159 421c-63 0-123 0-185 0-1 7-2 13-2 20 0 95 0 191 0 286 0 29 6 35 34 35 40 0 80 0 121 0 27 0 33-6 33-32 0-98 0-195 0-292 0-5-1-10-1-17z m56-2c0 103 0 204 0 309 118-49 189-133 219-255 6-1 12-2 18-2 17-2 20-4 21-19 1-19 0-37 0-59-86 21-171 21-258 26z m-297 309c0-105 0-205 0-309-86-5-172-4-258-26 0 22 0 42 0 62 0 10 6 15 16 15 7 1 13 0 22 0 28 123 100 208 220 258z m61-529c0-28-16-50-38-51-23 0-41 22-41 51 0 28 16 50 38 50 24 1 41-21 41-50z m174 1c1 28 18 49 40 49 22 0 39-20 41-47 2-28-18-54-41-54-23 1-40 24-40 52z" horiz-adv-x="887.7" />
<glyph glyph-name="glyph" unicode="&#xe811;" d="m56 524c68 39 132 76 197 113 0 67 0 133 0 198 26 20 26 20 55 1 0-17 0-36 0-54 0-43 0-86 0-129 0-10 0-18 11-24 60-34 120-68 183-104 1 8 2 14 2 20 1 44 1 87 0 130 0 12 2 21 14 27 20 10 40-1 41-23 0-5 0-10 0-15 0-208 0-416 0-624 0-3 0-7 0-10 2-18-5-30-21-39-31-16-61-34-91-51-47-28-95-54-142-83-17-9-31-10-47 0-79 46-157 90-236 135-16 9-22 20-22 38 1 214 0 428 0 642 0 12 1 22 14 29 21 11 41 0 42-23 0-42 0-83 0-125 0-8 0-16 0-29z m249-204c0-138 0-273 0-410 9 4 15 8 22 11 56 33 112 66 169 97 14 8 20 17 20 34-1 122-1 244-1 365 0 6-1 13-2 23-71-41-140-81-208-120z m-185-167c0 24 1 41 0 59 0 4-3 11-6 13-17 10-34 19-54 30 0-25 0-46 0-68 19-10 37-21 60-34z m-59-84c18-10 36-20 59-33 0 23 1 41 0 60 0 4-3 10-7 12-16 10-33 19-52 30 0-24 0-45 0-69z m103 55c19-10 38-21 59-33 0 22 1 40 0 58 0 4-2 11-5 13-17 9-33 22-54 28 0-23 0-43 0-66z m-44 146c0 24 1 41 0 58-1 5-4 13-9 16-15 10-32 18-50 29 0-25 0-47 0-69 18-10 36-21 59-34z m45-195c-1-7-2-11-2-15 0-15 0-29 0-43 0-3 1-7 3-10 4-7 44-26 57-28 0 17 1 34 0 51 0 5-2 13-6 15-16 10-33 19-52 30z m-1 166c18-10 37-20 59-33 0 23 1 42 0 61 0 4-3 9-6 11-16 9-33 18-53 30 0-25 0-46 0-69z" horiz-adv-x="559.6" />
<glyph glyph-name="shield-alert" unicode="&#xe812;" d="m40-150c-7 34-15 67-40 93 43 97 84 193 127 289-13 8-26 17-21 34 7 21 26 18 43 19 3 6 6 12 9 18 25 55 49 111 73 166 5 10 7 18 1 28-54 85-10 191 76 220 4 1 8 3 13 6 0 27 0 54 0 80 0 30 13 47 35 47 23 1 37-17 37-47 0-27 0-54 0-80 118-43 137-160 82-238 29-65 58-132 87-199 17-4 39 3 45-21 4-16-5-25-21-32 42-97 84-192 127-290-26-25-31-61-41-93-2 0-4 0-5 0-7 12-11 27-21 37-15 16-23 35-31 54-40 90-80 180-119 270-4 8-7 15-11 23-33 0-64 0-96 0-6-37-13-47-33-46-6 0-15 2-18 6-7 12-11 25-17 40-29 0-61 0-93 0-4-9-8-17-12-26-42-95-84-191-126-286-3-8-7-15-12-22-11-17-22-33-33-50-2 0-4 0-5 0z m423 436c-22 50-43 98-63 143-31 0-58 0-87 0-20-46-41-94-63-143 28 0 51 0 74 0 6 36 14 48 32 48 31-2 30-27 33-48 24 0 47 0 74 0z m-30 292c-1 42-37 77-79 75-41-2-74-37-73-78 0-43 36-76 78-75 42 2 75 36 74 78z" horiz-adv-x="712.9" />
<glyph glyph-name="employee" unicode="&#xe813;" d="m674 47c-33 30-66 61-99 91-4 4-9 7-13 12-9 10-18 16-34 10-9-4-22 2-36 3-2-4-5-12-8-20-24-60-49-121-74-182-8-21-25-31-47-28-18 2-35 17-37 36-1 9 1 20 4 29 27 69 55 137 83 207-60 41-121 82-183 124-5-21-11-41-16-62-9-34-16-69-27-103-5-18-15-34-24-50-26-51-52-101-79-152-16-29-55-32-75-6-12 15-12 33-3 50 30 56 61 112 89 169 11 25 17 53 24 79 13 48 24 97 38 145 6 19 17 36 27 53 3 7 3 12 1 18-24 58-47 116-70 174-3 9-5 18-5 26-1 26 18 45 44 44 51-2 103-5 154-8 10 0 19 0 28-2 16-3 33-6 47-13 31-16 60-34 90-51 18-10 28-25 27-46-2-42-5-85-7-127-2-30-5-60-7-89 0-5 2-11 4-15 21-48 43-95 64-143 4-7 4-15 6-23 1-4 3-8 5-10 44-41 89-82 134-122 3-3 9-3 14-3 25 5 50 13 75 16 45 4 87-8 126-29 50-27 90-64 119-113 2-5 5-10 6-15 5-13 3-20-8-28-21-16-46-22-71-27-73-15-147-18-221-15-51 3-101 8-149 22-15 4-29 11-42 19-15 9-17 18-8 33 16 31 41 55 69 77 20 16 42 30 65 45z m-467 584c11-28 21-53 32-81 16 27 29 51 44 77-26 2-50 3-76 4z m211-308c-9 19-14 38-12 59 1 20 2 40 4 60-16-21-30-42-44-64-1-2 0-8 1-9 17-16 34-31 51-46z m131 442c0-46-38-83-84-83-46 0-84 38-84 84 1 46 39 84 84 84 47 0 84-38 84-85z" horiz-adv-x="1041" />
<glyph glyph-name="saws" unicode="&#xe814;" d="m541 129c-14-4-25-8-37-11-8-3-16-2-22 5-13 15-27 30-40 44-6 7-8 14-5 23 4 11 6 22 10 36-12-4-23-7-33-10-12-4-21-3-30 6-12 13-25 26-37 38-7 7-10 15-7 25 4 11 6 22 10 35-10-3-18-4-26-8-17-8-29-3-42 9-48 46-96 92-144 137-5 5-10 8-14 12-16 15-32 30-45 47-18 20-33 42-48 64-21 30-32 63-31 99 1 27 19 42 44 32 15-6 25-4 38 4 27 17 54 34 82 48 33 15 70 22 106 26 23 2 39 14 48 35 12 28 42 34 63 11 14-15 25-32 36-48 32-49 68-96 96-148 49-89 108-172 162-258 77-121 156-241 234-362 4-6 8-12 11-18 7-19 3-36-11-49-36-31-73-62-108-93-14-12-28-13-42-4-12 7-24 16-33 27-4 4-4 15-3 22 1 9 4 19 7 30-12-4-22-6-32-10-9-3-17 0-23 6-15 14-29 29-44 43-7 7-6 16-4 25 3 11 6 22 10 34-13-4-23-7-34-10-11-4-21-3-29 7-11 13-23 26-36 38-8 8-9 17-6 27 3 11 6 21 9 34z" horiz-adv-x="922.9" />
<glyph glyph-name="cole" unicode="&#xe815;" d="m438 751c32-46 47-97 45-152-1-35-10-68-26-98-3-6-2-10 2-15 79-95 157-191 236-286 42-50 83-101 125-151 56-70 14-181-75-197-53-9-96 8-127 53-105 153-210 306-315 459-5 7-9 9-19 8-132-23-252 59-279 190-13 63-1 123 34 178 8 12 13 12 22 1 40-53 80-107 120-160 10-13 13-13 27-3 74 56 149 112 223 168 2 2 4 3 7 5z m358-758c-4 6-6 11-10 15-102 128-204 255-307 383-7 9-15 11-22 5-7-6-7-13 1-23 93-116 186-232 279-348 11-13 21-27 33-39 3-4 10-5 15-4 4 1 7 7 11 11z m-408 555c0 18-10 35-26 44-17 10-35 10-51-1-23-16-46-32-67-50-21-18-23-48-6-69 16-21 46-26 68-11 22 15 43 32 64 48 12 10 18 23 18 39z m27 228c-46-34-92-68-138-103-13 17-27 34-40 51-24 32-48 65-72 97-7 9-6 14 4 18 81 26 181 6 246-63z m-129-301c0-10-3-15-11-16-7 0-12 3-14 10-3 16-6 31-8 47-1 7 4 14 11 14 5-1 13-6 14-10 4-15 5-31 8-45z m36 21c-3-2-6-8-11-9-7-3-13 2-14 10-3 15-6 30-8 45-1 8 3 14 10 14 5 0 13-5 14-9 4-15 6-31 9-51z m36 27c-3-3-7-8-12-10-7-2-12 3-14 10-3 16-5 31-7 46-2 8 2 14 10 14 5 0 13-5 14-9 4-16 5-32 9-51z" horiz-adv-x="845.7" />
<glyph glyph-name="protection" unicode="&#xe816;" d="m1406-131c-10-15-24-19-41-19-251 0-501 0-752 0-220 0-412 155-459 371-49 229 76 459 295 542 273 102 573-65 629-352 5-27 8-56 8-83 0-134-1-268-2-402 0-4 1-8 1-12 90 0 178 0 269 0 0 22 0 44 0 68 19 0 35 0 52 0 0-38 0-76 0-113z m-783 765c-167 5-315-125-323-302-8-170 127-317 300-326 174-8 321 126 328 305 6 177-135 318-305 323z m-255 156c-33-21-66-38-95-60-104-79-165-184-183-314-1-9-5-12-13-10-7 2-14 4-20 8-12 8-24 17-36 26-24 19-28 46-9 71 71 98 143 196 215 294 6 8 12 17 19 25 16 22 44 26 66 11 13-8 25-16 36-26 9-8 14-17 20-25z m246-729c-145 0-260 116-260 261 0 143 117 258 262 258 141 0 257-118 257-259 0-143-116-260-259-260z m-1 438c-98 0-179-81-178-179 0-97 81-178 179-178 97 1 177 80 178 178 1 97-81 179-179 179z" horiz-adv-x="1405.3" />
<glyph glyph-name="drill" unicode="&#xe817;" d="m609 665c0-30 0-57 0-85 0-23-13-36-36-36-14 0-29 0-45 0 0-5 0-9 0-13 0-66 0-133 0-199 0-18-2-21-20-21-13 0-27 0-41 0 0-4 0-9 0-13 0-70 0-141 0-211 0-19-4-23-24-23-3 0-6 0-11 0 0-5 0-9 0-13 0-61 0-122 0-183 0-15-4-18-21-18-17 0-21 3-21 19 0 61 0 122 0 183 0 3 0 7 0 12-6 0-10 0-15 0-14 0-19 5-19 19 0 72 0 143 0 215 0 4 0 8 0 13-15 0-30 0-44 0-14 1-18 4-18 18 0 68 0 135 0 203 0 3 0 7 0 12-15 0-29 0-43 0-24 0-37 12-37 36 0 24 0 48 0 72 0 4 0 8 0 13-5 0-9 0-13 0-60 0-119 0-179 0-17 0-22 5-22 22 0 13 0 27 0 40 0 16 5 20 21 20 60 0 120 0 180 0 4 0 8 0 13 0 0 17 0 33 0 48 0 9 0 19 1 28 1 14 14 25 28 26 4 1 8 1 12 1 104 0 208-1 313 0 28 0 43-17 41-42-1-20 0-39 0-61 4 0 8 0 11 0 61 0 122 0 184 0 12 0 17-3 18-16 0-15 1-31 0-47-1-15-5-19-21-19-59 0-119 0-179 0-4 0-8 0-13 0z m-198 11c34 0 68 0 102 0 14 0 18 4 18 18 0 33 0 66 0 99 0 15-4 19-18 19-68 0-136 0-203 0-14 0-18-4-18-18 0-33 0-66 0-100 0-15 3-18 18-18 34 0 68 0 101 0z m-17-244c0-25 0-50 0-74 0-14 4-17 17-17 13 0 18 4 18 17 0 49 0 98 0 147 0 12-5 17-18 17-13 0-17-4-17-17 0-24 0-49 0-73z" horiz-adv-x="822.3" />
<glyph glyph-name="barrier" unicode="&#xe818;" d="m48 684c0 12 0 23 0 33 0 9 3 13 13 13 52 0 105 0 157 0 9 0 13-4 13-13 0-10 0-21 0-33 4 0 8 0 12 0 110 0 221 0 331 0 33 0 48-16 48-49 0-93 0-186 1-279 0-28-16-51-49-49-4 1-7 0-11 0 0-68 0-135 0-203 11 0 22 0 32 0 9 0 14-3 14-13-1-39-1-78 0-118 0-9-4-13-13-12-11 0-21 0-33 0 0-4-1-8-1-12 0-29 0-57 0-86 1-9-2-14-12-13-6 0-13 0-19 0-8 0-11 3-11 12 0 30 0 61 0 91 0 2-1 4-1 7-138 0-277 0-416 0 0-3-1-7-1-10 0-29 0-58 0-87 0-10-3-14-13-13-6 0-12 0-18 0-9 0-12 4-12 12 1 30 0 59 0 89 0 3 0 6 0 10-12 0-23 0-34 0-8 0-12 3-12 12 0 40 0 79 0 119 0 9 4 12 13 12 10 0 21 0 33 0 0 68 0 135 0 203-6 0-11 0-16 0-26 1-43 17-43 43 0 97 0 194 0 291 0 25 16 41 42 43 1 0 3 0 6 0z m55-579c139 0 278 0 416 0 0 68 0 134 0 201-139 0-277 0-416 0 0-67 0-134 0-201z m466 525c0 2 0 3-1 4-8 3-17 6-26 7-13 1-26 1-39 0-6-1-12-3-16-7-18-19-36-38-54-58-64-68-127-136-191-204-6-6-12-13-19-22 26 0 51 1 75 0 7 0 11 2 16 7 65 70 131 141 196 211 20 21 39 41 59 62z m-183 11c-27 0-51 0-76 0-7 0-11-2-16-7-79-85-158-170-238-255-11-12-10-17 5-25 5-2 10-3 15-3 10-1 21-1 30 0 6 0 12 2 15 6 66 70 132 141 197 211 22 24 44 47 68 73z m28-291c29 0 56 0 82 1 3 0 7 2 9 5 20 21 39 42 59 63 11 11 16 22 15 38-2 13-1 27-1 41 0 8 0 17 0 28-55-59-108-116-164-176z m-371 129c51 55 100 108 151 162-28 0-53 0-77 0-5 0-11-3-14-6-19-20-37-40-56-60-2-2-4-5-4-7 0-29 0-57 0-89z m97 371c32 0 57-27 57-58-1-32-28-58-59-58-32 1-57 27-57 59 0 32 26 58 59 57z m31-57c0 18-14 32-32 32-18 0-33-14-33-32 0-18 15-33 33-33 18 0 32 14 32 33z" horiz-adv-x="622.1" />
<glyph glyph-name="cone" unicode="&#xe819;" d="m462 850c17 0 22-11 26-25 6-28 14-56 21-84 1-4 2-8 3-12-53 0-105 0-158 0 9 33 18 66 26 100 3 11 8 20 20 21 21 0 42 0 62 0z m264-930c4 0 8 0 12 0 34 0 67 0 100 0 14 0 23-7 27-18 4-13-1-26-9-35-15-15-31-17-51-17-249 0-498 0-748 0-11 0-21 0-29 10-1 2-4 2-6 3-14 3-24 16-22 31 2 16 13 26 29 26 33 0 67 0 101 0 8 0 12 1 14 10 38 147 77 294 116 441 2 11 6 15 18 15 104-1 207-1 311 0 12 0 15-4 18-14 38-146 77-292 115-439 1-4 2-8 4-13z m-157 592c-91 0-181 0-272 0 7 25 13 48 19 72 1 4 2 7 3 10 1 7 4 9 11 9 69 0 138 0 207-1 3 0 9-3 10-5 8-28 15-56 22-85z" horiz-adv-x="866.2" />
<glyph glyph-name="gloves" unicode="&#xe81a;" d="m611 548c14-4 27-8 40-11 2 3 4 6 6 10 32 58 65 117 98 175 10 18 24 32 47 30 38-4 56-38 37-73-24-44-49-87-73-130-8-15-17-30-26-46 12-6 23-11 35-17 19 33 38 66 56 99 16 29 32 58 48 86 4 7 8 13 13 18 12 13 27 18 44 12 18-6 32-16 35-36 3-14-2-27-9-39-33-59-66-118-99-177-6-10-7-16 4-23 6-4 11-11 18-17 9 16 18 31 26 46 25 44 49 87 73 131 10 17 23 30 45 29 38-2 57-37 40-71-12-22-24-43-36-64-46-82-91-164-137-246-2-2-3-5-5-10 16-3 31-6 46-8 25-4 50-8 75-12 38-7 58-35 54-74-3-37-30-59-70-57-25 1-50 4-76 7-38 3-76 7-115 11-7 0-11-2-15-9-30-67-61-134-92-200-14-31-41-40-70-24-126 70-252 141-378 211-6 3-11 7-15 12-17 18-17 40 0 58 46 50 92 101 139 149 23 23 37 49 47 79 37 102 94 195 147 290 16 29 32 58 48 86 4 6 8 12 13 17 12 13 27 17 43 11 18-6 32-17 32-37 1-11-3-24-9-34-25-47-52-93-78-140-2-4-4-7-6-12z m-222-506c7 12 13 23 19 35 16 28 41 35 70 20 30-17 60-33 89-50 29-17 36-42 20-71-6-11-12-22-18-34 2-1 2-2 3-3 15-8 30-16 44-24 23-13 43-6 55 17 22 44 44 88 65 132 11 22 5 40-16 53-13 7-26 14-39 22-71 40-142 79-212 119-23 13-47 10-63-7-36-37-71-75-105-113-15-16-14-36 5-48 26-17 54-32 83-48z m386 152c20 1 32 8 39 22 13 22 25 44 38 66 12 22 6 44-16 57-81 45-161 90-242 135-22 12-44 6-57-16-12-21-24-43-36-65-13-24-8-45 17-58 80-45 160-90 240-135 6-3 14-5 17-6z m-338 375c0 6 0 10 0 14 0 61 0 121 0 182 0 6-1 13 0 20 5 26 22 40 50 39 24-1 41-16 42-42 2-28 1-57 1-85 0-4-3-9-5-13-35-63-70-125-103-189-20-39-36-80-52-121-8-20-19-37-34-53-46-49-92-100-139-148-48-50-26-121 25-150 30-18 62-35 93-52 3-2 6-4 12-7-5-1-7-1-8-1-91 0-181 0-272 0-8 0-18 3-25 7-19 9-25 24-20 45 18 77 38 154 55 232 4 16-1 35-3 53-5 56-13 112-15 169-2 88-1 176-1 264 0 36 28 57 62 46 17-5 28-20 28-42 0-55 0-111 0-167 0-4 0-8 0-14 14 3 26 5 38 9 2 1 4 8 4 11 0 67 0 134 0 201 0 8 1 16 3 24 7 23 26 33 52 30 20-2 35-18 37-40 1-7 1-14 2-21 0-58 0-117 0-175 0-5 0-9 0-13 11 0 22-1 32 0 9 0 8 6 8 12-1 66-1 132-1 198 0 6 0 11 1 17 5 29 22 43 51 41 25-2 42-20 42-48 0-58 0-115 0-173 0-14 0-29 0-43 0-6 2-9 8-10 10-1 20-4 32-7z" horiz-adv-x="1075.2" />
<glyph glyph-name="big-bulldozer" unicode="&#xe81b;" d="m912-73c-22-12-41-23-60-34-4-3-6-8-9-12-5-5-9-14-14-16-7-1-16 3-23 6-3 1-5 5-8 5-29-2-57-5-88-8-2-9-7-18-21-18-14 0-18 9-22 21-27 0-55 0-82-1-4 0-8-2-10-5-12-16-27-16-39-1-2 3-7 6-11 6-24 1-49 1-73 0-4 0-8-1-11-3-17-20-29-19-42 4-26 0-52 0-78-1-4 0-9-4-12-8-10-12-27-12-36 1-3 4-9 7-14 7-25 3-51 6-77 8-3 0-7-1-10-3-16-13-32-7-36 13-1 4-5 8-8 10-11 7-22 13-33 21-9 5-16 13-30 10-11-2-20 13-19 26 1 5 0 11-3 16-5 10-11 20-16 31-4 8-6 17-18 21-11 4-12 22-4 32 3 5 5 11 6 17 3 18 5 36 8 54 2 7 3 12-2 19-9 11 0 30 14 31 9 0 13 5 16 11 6 10 12 19 19 30-9 8-13 18-5 30 9 12 20 9 31 4 10 12 20 22 31 34-6 11-10 24 3 31 8 4 19 3 28 4 0-1 0-3 0-4 17 12 33 23 50 35 3 3 3 9 6 12 4 7 8 16 14 19 5 3 13-1 20-2 5-1 10-3 15-3 17 3 34 6 51 8 9 1 18 0 26 9 9 10 28 3 32-10 2-4 6-10 10-11 23-6 48-12 71-17 19 21 32 18 44-7 1-3 6-5 10-6 24-7 48-12 72-18 0 1-1 3-1 4 10 3 20 6 30 7 4 0 12-7 12-11 1-10 7-12 15-14 17-3 34-8 51-12 4-1 10-1 11 1 6 11 14 16 25 10 7-5 12-13 19-20-1-1-2-2-4-4 30-5 59-11 88-16 2-1 5 1 6 2 8 12 19 13 29 6 6-5 8-15 13-24 20-17 41-35 63-54 2-2 6-4 9-4 12 3 22 0 25-11 3-8 0-18-1-27 5-26 10-53 15-80 0-4 3-8 5-11 15-12 12-31-6-38-3-1-6-4-8-7-10-21-19-42-30-65 7-8 10-19-1-30-10-9-20-7-28 0z m-597 81c58 0 104 46 104 104 0 57-46 104-102 104-57 1-104-46-104-103 0-57 46-105 102-105z m452 131c-39 0-71-31-70-69 0-37 31-68 68-68 38 0 69 30 69 68 0 39-30 69-67 69z m798-177c-42-33-83-68-133-85-24-9-53-10-79-10-96 0-185 24-267 73-11 6-21 14-31 20-25 14-29 35-26 61 6 42 22 80 41 117 5 11 4 16-7 22-19 11-37 23-55 35-25 16-51 30-72 52-14 16-33 26-51 40 3 10 2 21-13 27-13 5-21-1-26-11-31 5-61 10-90 15-4 1-10 5-10 8-1 12-7 18-18 20-12 2-21-2-24-16-27 7-52 13-78 19 1 1 2 2 3 3-6 7-10 16-17 20-9 5-20 3-26-8-2-2-8-3-11-2-24 5-49 11-73 18-4 1-7 7-10 10-5 6-10 14-16 15-7 2-14-4-22-6-5-2-10-5-15-4-25 6-50 12-75 19-1 14-7 24-24 23-2 0-5 0-6-1-13-16-32-9-49-12-10-2-20-3-29-6-10-3-18-7-28 3-10 10-31-3-30-18 0-8-3-12-9-16-18-12-34-24-53-37-13 16-25 6-38-9 0 39-2 76 0 112 1 28 25 50 53 51 22 0 45 0 68 0 0 8 0 13 0 18 1 99 1 199 2 299 0 25 2 27 26 27 108 1 216 1 324 2 22 0 26-5 28-26 7-68 14-136 20-204 4-35 7-70 11-106 17 0 33 0 53 0 0 20 0 39 0 58 0 41 1 82 1 123 0 3-1 6 1 7 19 23 38 46 59 67 2 3 18-3 21-8 3-7 3-19-1-26-8-13-20-24-30-36-3-4-7-11-7-16-1-53-1-106-2-160 0-2 1-4 2-9 5 0 11 0 16 0 57 0 115-1 172-1 29 0 53-21 55-50 2-42 3-84 1-126-1-26 7-39 29-51 37-21 73-45 110-69 3 4 6 8 8 12 12 19 25 38 35 58 30 59 69 52 131 39 3-1 6-9 7-14 5-52 15-102 32-151 21-61 51-116 104-155 36-27 77-41 121-41 5 0 10 0 14-1 0 0 1 0 3-2z m-1298 695c0-40 1-79 0-119 0-11 4-17 15-17 43 0 85 1 128 1 14 0 20 5 19 20 0 40 0 80 0 120 0 38 1 76 1 114 1 12-4 19-17 19-42-1-83-1-125-2-19 0-21-2-21-21 0-38 0-77 0-115z m217 2c0 0-1 0-1 0 0-39 1-78 0-117 0-14 4-21 19-20 17 1 34 0 50 0 19 0 21 2 20 20-6 79-12 158-18 238-1 10-7 15-17 15-10 0-21 0-32 0-17 0-21-3-21-21 0-38 0-77 0-115z" horiz-adv-x="1564.5" />
<glyph glyph-name="wagons" unicode="&#xe81c;" d="m1444 110c-13-3-25-8-38-8-25-2-51-1-79-1-2-21-4-40-7-59-22-147-179-233-313-172-80 36-121 102-133 188 0 6-1 12-1 18-26 7-226 10-293 3-2-8-4-17-5-27-15-116-105-199-219-202-109-3-204 77-226 190-18 94 27 194 109 241 13 8 32 13 47 12 98-7 195-16 292-25 64-6 128-12 192-18 50-4 73 12 84 61 24 104 47 209 70 313 2 8 5 16 7 25 10 1 18 2 26 2 69 1 137 0 205 1 31 1 55-10 73-34 53-72 105-143 156-216 10-15 14-36 15-55 3-36 1-73 1-109 14-4 26-7 37-11 0-39 0-78 0-117z m-470-27c-1-71 56-130 124-131 68 0 127 60 126 130 0 69-56 128-123 130-68 1-127-58-127-129z m-623 129c-68-1-125-60-124-132 1-70 57-127 124-128 68 0 126 59 127 130 0 70-59 130-127 130z m804 172c36 0 73-1 109 0 10 1 22 5 27 12 4 4-2 18-7 25-32 44-64 86-96 129-12 18-29 26-49 25-33 0-66 0-99-1-26-1-30-5-30-30-1-43-1-85 0-128 0-27 4-31 32-32 38-1 75 0 113 0z m-42 465c0-37 0-67 0-101-75 0-149 0-226 0-33-144-64-286-97-433-263 23-525 47-790 71 0 92 0 180 0 273 25 4 51 9 77 14 167 27 334 54 501 80 16 2 27 8 36 21 6 7 14 14 19 22 26 43 62 56 112 54 109-4 217-1 326-1 13 0 26 0 42 0z" horiz-adv-x="1444.3" />
</font>
</defs>
</svg>
